<svg version="1.1" xmlns:cc="http://creativecommons.org/ns#" xmlns:dc="http://purl.org/dc/elements/1.1/" xmlns:rdf="http://www.w3.org/1999/02/22-rdf-syntax-ns#" xmlns:svg="http://www.w3.org/2000/svg" xmlns="http://www.w3.org/2000/svg" xmlns:xlink="http://www.w3.org/1999/xlink" x="0px" y="0px" viewBox="0 0 960 384" style="enable-background:new 0 0 960 384;" xml:space="preserve">

<path fill="#ffffff" d="M439.8,315.1c8.2-7.9,12.5-18.9,12.5-31.3c0-12.6-4.4-23.6-12.5-31.5c-6.3-6.2-18.2-13.6-38.7-13.6h-25.5h-20.5
	v135.9h24.2v-46h17.8l39.1,46h27.4l-41.8-49.1C430.2,322.9,436.1,318.7,439.8,315.1z M379.4,309.6v-51.7h21.7
	c10,0,17.6,2.4,22.4,7.1c5.9,5.5,6.9,13.2,6.9,18.7c0,5.3-1,13-6.9,18.5c-4.8,4.8-12.3,7.3-22.4,7.3H379.4z M616,232.4v142.2h-24.5
	v-72.2l-48.5,63.4l-48.7-63.4v72.2h-24.2V232.4l72.9,95.3L616,232.4z M91.2,328.2c2.3,6.2,2.5,12.8,0.4,19.1
	c-4.4,13.2-18,23.6-34.9,26.6c-3.1,0.5-6.3,0.7-9.4,0.7c-6.3,0-12.5-0.9-18.4-2.9c-9.8-3.5-18.4-9.2-25.7-17.4l19.2-13.2
	c4.4,5.1,9.6,8.8,15.3,10.6c4.6,1.6,9.6,2,14.2,1.1c7.9-1.3,14.4-5.9,16.3-11.4c2.1-6.2-2.7-11.7-7.1-15.4
	c-6.9-5.7-18.2-15.4-19-16.1l-19-15.8c-5.9-4.9-9.8-10.4-11.9-16.3c-2.1-5.7-2.3-11.7-0.4-17.2c1.9-5.9,5.9-11,11.5-15.2
	c5.2-3.8,11.7-6.6,18.6-7.7c7.5-1.5,15.5-0.9,23,1.5c7.9,2.7,15,7.3,21.1,13.7l-19,13.4c-7.9-8.4-16.1-8.4-20.5-7.7
	c-5.4,0.9-10,4-11.3,7.9c-0.8,2.6-0.6,6.8,5.9,12.3l25.9,21.8c3.8,3.3,8.4,7.1,11.7,9.9C84.3,315.8,88.9,321.8,91.2,328.2z
	 M216.7,337.9l-19.6-39.1l-38.5,81.9l-71.1-142h26.8l43.7,89.6l25.7-56.4l12.5-28l13.6,27.7l19,39.2L216.7,337.9z M213.5,374.6h26.8
	l13.2-29.1h55.2l13.2,29.1h26.5L281,232.4L213.5,374.6z M262.2,326.4L281,285l18.8,41.4H262.2z"></path>
<path fill="#F7931D" d="M679.6,250.6L608.2,186L755.1,49.8l169.5-0.5L679.6,250.6z M693.4,262.9l47-39.4l-0.3,87
	L693.4,262.9z M604.7,42.6l64,63.7l-63.9,60.4L604.7,42.6z M585.9,81l-38.3,0.2l38.8-38.8L585.9,81z M951.4,33.6
	c-61.3,0.3-199.2-1.9-203.3-0.3l-65.8,61.6l-80.7-80.1c0,0-0.6-2.6-7-2.5c-3,0-4.8,1.6-4.8,1.6l-70.2,70.5c0,0-2.8,3-2.2,6.4
	c0.7,4.7,5.7,6.4,5.7,6.4l63.2,0.3c0,0-1.5,88.2,0.3,91.8c1.8,3.6,155.7,147.1,155.7,147.1s2.9,3,6,3.5c6.4,1,7.9-5.7,7.9-5.7
	l0.6-125.2c0,0,137.5-112.8,194.4-159.8c1.7-1.4,3.6,0.3,4.1-7.6C955.8,36.7,954.6,33.5,951.4,33.6"></path>
</svg>