<svg xmlns="http://www.w3.org/2000/svg" width="454" height="345"><rect width="100" height="100" class="selected" fill="none"/><path d="M169.3 247L97.9 182.4 244.8 46.2l169.5-0.5L169.3 247zM183.1 259.3l47-39.4 -0.3 87L183.1 259.3zM94.4 39l64 63.7 -63.9 60.4L94.4 39zM75.6 77.4l-38.3 0.2 38.8-38.8L75.6 77.4zM441.1 30c-61.3 0.3-199.2-1.9-203.3-0.3l-65.8 61.6 -80.7-80.1c0 0-0.6-2.6-7-2.5 -3 0-4.8 1.6-4.8 1.6l-70.2 70.5c0 0-2.8 3-2.2 6.4 0.7 4.7 5.7 6.4 5.7 6.4l63.2 0.3c0 0-1.5 88.2 0.3 91.8 1.8 3.6 155.7 147.1 155.7 147.1s2.9 3 6 3.5c6.4 1 7.9-5.7 7.9-5.7l0.6-125.2c0 0 137.5-112.8 194.4-159.8 1.7-1.4 3.6 0.3 4.1-7.6C445.5 33.1 444.3 29.9 441.1 30" fill="#F7931D"/></svg>
